<?xml version="1.0" standalone="no"?><!DOCTYPE svg PUBLIC "-//W3C//DTD SVG 1.1//EN" "http://www.w3.org/Graphics/SVG/1.1/DTD/svg11.dtd"><svg t="1765596137141" class="icon" viewBox="0 0 1024 1024" version="1.1" xmlns="http://www.w3.org/2000/svg" p-id="30869" width="128" height="128" xmlns:xlink="http://www.w3.org/1999/xlink"><path d="M114.036364 423.563636c18.618182-11.636364 39.563636-11.636364 58.181818-2.327272l249.018182 125.672727c37.236364 18.618182 58.181818 53.527273 58.181818 95.418182v235.054545c0 20.945455-11.636364 41.890909-27.927273 51.2-9.309091 6.981818-20.945455 9.309091-32.581818 9.309091-9.309091 0-18.618182-2.327273-27.927273-6.981818L144.290909 805.236364c-37.236364-18.618182-58.181818-55.854545-58.181818-95.418182V474.763636c0-20.945455 9.309091-39.563636 27.927273-51.2z m735.418181-2.327272c18.618182-9.309091 41.890909-9.309091 58.181819 2.327272 18.618182 11.636364 27.927273 30.254545 27.927272 51.2v235.054546c0 41.890909-23.272727 76.8-58.181818 95.418182L630.690909 930.909091c-9.309091 4.654545-18.618182 6.981818-27.927273 6.981818-11.636364 0-23.272727-2.327273-32.581818-9.309091-18.618182-11.636364-27.927273-30.254545-27.927273-51.2V642.327273c0-41.890909 23.272727-76.8 58.181819-95.418182l249.018181-125.672727zM467.781818 97.745455c27.927273-16.290909 62.836364-16.290909 90.763637 0l267.636363 144.290909c18.618182 11.636364 32.581818 30.254545 32.581818 53.527272s-11.636364 44.218182-32.581818 53.527273L558.545455 493.381818c-13.963636 6.981818-30.254545 11.636364-44.218182 11.636364s-30.254545-4.654545-44.218182-11.636364L200.145455 351.418182c-18.618182-11.636364-32.581818-32.581818-32.581819-53.527273 0-23.272727 11.636364-44.218182 32.581819-53.527273l267.636363-146.618181z" p-id="30870" fill="#feba07"></path></svg>